<?xml version="1.0" standalone="no"?>
<!DOCTYPE svg PUBLIC "-//W3C//DTD SVG 20010904//EN"
 "http://www.w3.org/TR/2001/REC-SVG-20010904/DTD/svg10.dtd">
<svg version="1.0" xmlns="http://www.w3.org/2000/svg"
 width="512.000000pt" height="512.000000pt" viewBox="0 0 512.000000 512.000000"
 preserveAspectRatio="xMidYMid meet">

<g transform="translate(0.000000,512.000000) scale(0.100000,-0.100000)"
fill="#000000" stroke="none">
<path d="M3537 5074 c-3 -3 -57 -6 -119 -6 -62 0 -102 -2 -88 -5 14 -2 59 -11
100 -19 41 -8 92 -17 114 -19 21 -3 43 -8 49 -12 6 -3 22 -8 36 -9 14 -1 37
-5 51 -8 14 -4 19 -4 13 0 -7 3 -13 12 -13 20 0 8 -8 15 -17 16 -10 1 -25 2
-33 3 -39 3 -70 17 -70 30 0 15 -12 20 -23 9z"/>
<path d="M1813 5063 c9 -2 25 -2 35 0 9 3 1 5 -18 5 -19 0 -27 -2 -17 -5z"/>
<path d="M2823 5063 c9 -2 25 -2 35 0 9 3 1 5 -18 5 -19 0 -27 -2 -17 -5z"/>
<path d="M1478 5023 c7 -3 16 -2 19 1 4 3 -2 6 -13 5 -11 0 -14 -3 -6 -6z"/>
<path d="M2405 3794 c-203 -43 -387 -188 -483 -379 -34 -67 -51 -120 -32 -95
10 13 11 12 6 -3 -3 -10 -6 -24 -6 -30 0 -7 -5 -6 -11 3 -8 11 -9 6 -4 -20 5
-27 4 -31 -5 -20 -8 11 -9 6 -5 -25 3 -22 2 -32 -2 -23 -5 10 -8 -41 -8 -112
0 -72 2 -130 5 -130 4 0 12 -27 18 -59 26 -125 133 -293 238 -374 l54 -42 -37
-7 c-21 -4 -89 -14 -152 -22 -63 -9 -116 -18 -119 -21 -3 -3 1 -38 8 -77 8
-40 13 -76 12 -80 -3 -11 8 -10 115 6 134 21 160 13 104 -33 -25 -21 -31 -30
-21 -36 9 -6 11 -4 5 5 -5 9 -4 11 3 6 18 -11 14 -23 -8 -29 -13 -3 -18 -1
-13 5 3 7 1 8 -5 4 -7 -4 -9 -18 -6 -32 5 -19 2 -24 -12 -24 -16 0 -17 -2 -4
-10 13 -8 12 -10 -4 -10 -12 0 -16 -5 -12 -16 4 -10 2 -13 -6 -8 -7 5 -9 2 -5
-9 3 -8 -1 -21 -8 -27 -8 -7 -12 -16 -10 -21 3 -4 -14 -9 -37 -11 l-43 -3 -90
-228 c-83 -210 -91 -226 -100 -200 -5 15 -46 118 -90 228 l-80 200 -62 3 -61
3 -6 -53 c-3 -29 -10 -141 -16 -248 -6 -107 -13 -223 -16 -257 l-6 -63 71 0
71 0 2 173 3 172 39 -100 c22 -55 54 -133 72 -172 l33 -73 56 0 c55 0 55 0 71
39 l16 40 36 -39 c51 -53 132 -77 204 -60 77 19 121 65 179 188 27 57 49 105
49 107 0 3 82 177 151 321 16 34 29 69 29 78 0 9 5 16 10 16 6 0 10 15 10 33
0 25 3 29 11 17 9 -13 10 -13 6 0 -2 8 -12 14 -22 12 -9 -2 -14 1 -11 6 7 12
-17 22 -54 22 -16 0 -32 4 -35 10 -3 6 -15 10 -25 10 -15 0 -18 7 -16 35 3 28
0 35 -15 35 -9 0 -19 -6 -21 -12 -6 -16 -68 -19 -90 -4 -40 28 29 48 110 31
21 -5 38 -3 47 5 44 36 438 19 826 -36 l45 -6 13 82 c7 45 10 84 8 86 -2 3
-71 14 -153 26 l-149 22 86 85 c58 58 99 110 126 159 22 39 42 69 46 66 3 -3
3 4 0 17 -4 14 -2 20 4 16 7 -5 9 1 5 15 -3 14 -2 19 6 14 12 -7 14 -2 17 49
1 17 3 48 4 70 3 39 4 39 10 10 4 -16 6 35 5 115 -2 126 -5 154 -27 216 -31
88 -50 125 -98 190 -176 239 -458 348 -744 288z m218 -11 c-29 -2 -78 -2 -110
0 -32 2 -8 3 52 3 61 0 87 -1 58 -3z m-186 -9 c-3 -3 -12 -4 -19 -1 -8 3 -5 6
6 6 11 1 17 -2 13 -5z m276 -1 c-7 -2 -19 -2 -25 0 -7 3 -2 5 12 5 14 0 19 -2
13 -5z m-326 -9 c-3 -3 -12 -4 -19 -1 -8 3 -5 6 6 6 11 1 17 -2 13 -5z m370 0
c-3 -3 -12 -4 -19 -1 -8 3 -5 6 6 6 11 1 17 -2 13 -5z m-467 -34 c-19 -11 -39
-19 -45 -19 -5 0 6 8 25 19 19 11 40 19 45 19 6 0 -6 -8 -25 -19z m540 10 c8
-5 11 -10 5 -10 -5 0 -17 5 -25 10 -8 5 -10 10 -5 10 6 0 17 -5 25 -10z m-600
-35 c0 -2 -10 -9 -22 -15 -22 -11 -22 -10 -4 4 21 17 26 19 26 11z m720 -31
c0 -2 -9 0 -20 6 -11 6 -20 13 -20 16 0 2 9 0 20 -6 11 -6 20 -13 20 -16z
m103 -83 c32 -31 68 -69 79 -86 12 -16 0 -7 -26 22 -26 29 -70 73 -99 99 -29
26 -43 41 -32 34 11 -8 46 -39 78 -69z m-946 26 c-27 -23 -67 -62 -89 -87
l-40 -45 32 42 c29 40 128 133 140 133 3 0 -17 -19 -43 -43z m275 1 c52 -15
121 -78 148 -133 40 -82 27 -196 -35 -301 -31 -52 -186 -209 -304 -307 l-74
-62 174 -3 c95 -1 176 -6 179 -11 3 -5 5 28 5 73 0 69 4 90 28 138 16 32 49
76 75 99 26 23 39 39 29 36 -52 -19 -66 -19 -61 0 2 10 22 91 43 181 21 90 41
166 44 169 3 2 45 0 94 -6 62 -8 104 -9 142 -1 30 5 57 8 59 5 3 -3 -2 -21
-11 -40 -29 -61 -94 -79 -223 -62 l-61 9 -30 -119 c-17 -65 -30 -119 -28 -121
2 -2 20 5 42 16 152 78 355 67 461 -24 92 -79 137 -245 97 -363 -73 -220 -352
-335 -568 -234 -60 29 -174 119 -163 131 3 2 22 -12 43 -32 21 -19 67 -50 103
-68 57 -28 77 -32 155 -34 89 -3 89 -3 25 6 -110 14 -184 54 -241 133 -16 22
-29 35 -29 29 0 -9 -70 -12 -257 -12 l-257 0 65 68 c157 159 303 353 356 472
34 74 42 183 19 244 -20 53 -81 111 -126 121 -71 16 -147 -20 -182 -87 -31
-60 -31 -149 0 -200 27 -44 78 -78 118 -78 28 -1 28 -1 9 -16 -27 -21 -107
-13 -143 13 -67 48 -90 158 -51 243 32 70 75 108 149 131 39 12 139 10 182 -3z
m-449 -223 c-15 -30 -29 -53 -31 -51 -4 5 46 106 53 106 3 0 -7 -25 -22 -55z
m1267 4 c12 -23 20 -43 18 -45 -3 -2 -14 17 -26 41 -27 56 -20 60 8 4z m39
-99 c0 -10 -3 -8 -9 5 -12 27 -12 43 0 25 5 -8 9 -22 9 -30z m18 -82 c-3 -7
-5 -2 -5 12 0 14 2 19 5 13 2 -7 2 -19 0 -25z m10 -65 c-3 -10 -5 -2 -5 17 0
19 2 27 5 18 2 -10 2 -26 0 -35z m-531 -682 c-56 -5 -70 -9 -72 -23 -3 -20 12
-25 18 -6 2 6 12 12 22 14 13 2 15 -1 6 -11 -8 -10 -7 -14 2 -18 7 -3 -15 -5
-49 -5 -61 1 -63 2 -64 27 l-1 26 -7 -25 c-9 -35 -61 -42 -62 -8 l0 23 -9 -22
c-12 -31 -26 -29 -38 5 l-10 27 -1 -27 c-1 -16 -6 -28 -11 -28 -6 0 -8 11 -4
25 6 24 4 24 -63 28 -37 1 40 3 172 3 132 0 209 -2 171 -5z m-427 -18 c6 -10
11 -12 11 -5 0 6 12 12 28 12 20 0 28 -5 28 -18 0 -10 -6 -19 -13 -19 -7 0
-13 6 -13 14 0 18 -17 16 -24 -3 -3 -8 -10 -12 -16 -9 -5 3 -10 1 -10 -4 0 -6
-13 -11 -30 -11 -25 0 -30 4 -29 23 0 21 1 21 9 2 7 -17 9 -17 9 -2 1 21 21
23 21 1 0 -8 5 -12 10 -9 6 3 10 12 10 20 0 10 -16 15 -52 18 l-53 3 52 2 c40
2 54 -2 62 -15z m604 10 c-13 -2 -35 -2 -50 0 -16 2 -5 4 22 4 28 0 40 -2 28
-4z m-765 -10 c-10 -2 -26 -2 -35 0 -10 3 -2 5 17 5 19 0 27 -2 18 -5z m275
-15 c3 -10 1 -18 -4 -18 -5 0 -9 6 -9 13 0 8 -4 7 -10 -3 -8 -12 -10 -11 -10
6 0 26 27 28 33 2z m398 16 c7 -4 6 -10 0 -18 -8 -9 -7 -13 4 -13 8 0 17 7 19
14 7 17 26 8 26 -11 0 -9 -13 -13 -37 -12 -30 1 -38 5 -37 19 2 21 -15 23 -23
1 -5 -13 -7 -13 -14 -2 -5 7 -9 15 -9 18 0 8 59 11 71 4z m207 -1 c-10 -2 -26
-2 -35 0 -10 3 -2 5 17 5 19 0 27 -2 18 -5z m-975 -10 c-7 -2 -19 -2 -25 0 -7
3 -2 5 12 5 14 0 19 -2 13 -5z m168 0 c-10 -4 -11 -7 -1 -13 7 -4 9 -13 6 -19
-12 -19 -26 -12 -26 14 0 17 5 25 18 24 12 0 13 -2 3 -6z m695 -20 c3 -16 -1
-20 -16 -16 -11 3 -18 13 -17 24 2 26 29 20 33 -8z m197 20 c-7 -2 -19 -2 -25
0 -7 3 -2 5 12 5 14 0 19 -2 13 -5z m-672 -76 c1 -20 2 -21 7 -2 l5 20 8 -20
c7 -18 8 -18 8 -1 1 12 6 16 16 13 8 -4 17 -3 19 2 6 9 43 8 52 -2 7 -7 -10
-11 -33 -8 -6 1 -14 -2 -16 -7 -3 -4 25 -9 63 -10 63 -3 68 -1 63 16 -2 11 0
23 6 26 7 5 11 -3 12 -21 1 -26 2 -24 15 16 3 10 7 11 18 2 8 -7 17 -8 20 -3
3 5 18 7 35 4 34 -5 37 -37 3 -37 -11 0 -24 -4 -28 -8 -11 -11 -292 -8 -299 3
-3 6 0 10 7 10 10 0 10 2 -1 9 -7 5 -10 14 -7 20 10 16 26 4 27 -22z m159 3
c0 -5 -4 -10 -10 -10 -5 0 -10 5 -10 10 0 6 5 10 10 10 6 0 10 -4 10 -10z
m-267 -37 c-18 -2 -48 -2 -65 0 -18 2 -4 4 32 4 36 0 50 -2 33 -4z m535 0
c-15 -2 -42 -2 -60 0 -18 2 -6 4 27 4 33 0 48 -2 33 -4z m-665 -10 c-13 -2
-33 -2 -45 0 -13 2 -3 4 22 4 25 0 35 -2 23 -4z m775 0 c-10 -2 -28 -2 -40 0
-13 2 -5 4 17 4 22 1 32 -1 23 -4z m-875 -10 c-7 -2 -19 -2 -25 0 -7 3 -2 5
12 5 14 0 19 -2 13 -5z m960 0 c-7 -2 -21 -2 -30 0 -10 3 -4 5 12 5 17 0 24
-2 18 -5z m-1040 -10 c-7 -2 -19 -2 -25 0 -7 3 -2 5 12 5 14 0 19 -2 13 -5z
m1120 0 c-7 -2 -19 -2 -25 0 -7 3 -2 5 12 5 14 0 19 -2 13 -5z m-1196 -9 c-3
-3 -12 -4 -19 -1 -8 3 -5 6 6 6 11 1 17 -2 13 -5z m1270 0 c-3 -3 -12 -4 -19
-1 -8 3 -5 6 6 6 11 1 17 -2 13 -5z m-971 -79 c10 -14 25 -25 32 -25 7 0 11
-4 8 -9 -4 -5 3 -7 14 -4 12 3 22 -1 26 -10 3 -9 12 -13 19 -11 16 7 39 -32
31 -52 -3 -8 -1 -14 5 -14 5 0 1 -9 -9 -20 -10 -11 -23 -30 -29 -43 -5 -12
-24 -51 -41 -87 -17 -36 -56 -119 -87 -185 -31 -66 -68 -143 -81 -171 -23 -48
-50 -82 -58 -73 -2 2 -9 103 -16 225 l-13 221 28 64 c15 35 34 76 42 92 8 15
11 27 7 27 -4 0 0 6 10 13 15 11 16 18 7 34 -9 18 -7 22 14 27 14 4 25 10 25
14 0 20 49 10 66 -13z m214 -35 c0 -5 -8 -10 -17 -10 -15 0 -16 2 -3 10 19 12
20 12 20 0z m-320 -8 c0 -5 -7 -9 -15 -9 -8 0 -15 4 -15 9 0 4 7 8 15 8 8 0
15 -4 15 -8z m-210 -558 c0 -89 -10 -101 -30 -39 -10 30 -9 43 7 80 10 25 19
45 21 45 1 0 2 -39 2 -86z"/>
<path d="M2930 3156 c0 -3 9 -10 20 -16 11 -6 20 -8 20 -6 0 3 -9 10 -20 16
-11 6 -20 8 -20 6z"/>
<path d="M3005 3100 c10 -11 20 -20 23 -20 3 0 -3 9 -13 20 -10 11 -20 20 -23
20 -3 0 3 -9 13 -20z"/>
<path d="M2773 3073 c9 -2 23 -2 30 0 6 3 -1 5 -18 5 -16 0 -22 -2 -12 -5z"/>
<path d="M2775 3039 c-4 -6 -4 -13 -1 -16 3 -4 6 0 6 8 0 11 2 11 10 -1 8 -13
10 -12 10 3 0 19 -15 23 -25 6z"/>
<path d="M2631 3005 c-17 -20 -31 -41 -31 -48 0 -7 6 -3 12 8 6 11 22 32 36
48 14 15 23 27 20 27 -3 0 -20 -16 -37 -35z"/>
<path d="M2746 3025 c4 -8 8 -15 10 -15 2 0 4 7 4 15 0 8 -4 15 -10 15 -5 0
-7 -7 -4 -15z"/>
<path d="M2915 3020 c10 -11 20 -20 23 -20 3 0 -3 9 -13 20 -10 11 -20 20 -23
20 -3 0 3 -9 13 -20z"/>
<path d="M2856 3013 c-6 -14 -5 -15 5 -6 7 7 10 15 7 18 -3 3 -9 -2 -12 -12z"/>
<path d="M2676 3011 c-4 -6 -4 -15 -1 -21 3 -5 -1 -10 -10 -10 -12 0 -15 -5
-11 -16 6 -15 4 -15 -11 -3 -9 8 -14 9 -10 2 4 -6 1 -14 -5 -16 -7 -3 -4 -6 8
-6 25 -1 71 56 56 71 -6 6 -12 6 -16 -1z"/>
<path d="M2878 3004 c-5 -7 0 -22 10 -34 15 -18 19 -19 19 -7 0 9 -4 14 -8 11
-4 -2 -9 6 -11 18 -2 14 -6 19 -10 12z"/>
<path d="M2915 2941 c-3 -5 -1 -12 4 -15 5 -3 11 1 15 9 6 16 -9 21 -19 6z"/>
<path d="M3091 2934 c0 -11 3 -14 6 -6 3 7 2 16 -1 19 -3 4 -6 -2 -5 -13z"/>
<path d="M2625 2921 c-6 -11 13 -26 22 -17 4 3 0 6 -8 6 -11 0 -11 2 1 10 9 6
10 10 3 10 -6 0 -14 -4 -18 -9z"/>
<path d="M2582 2880 c0 -14 2 -19 5 -12 2 6 2 18 0 25 -3 6 -5 1 -5 -13z"/>
<path d="M2981 2874 c0 -11 3 -14 6 -6 3 7 2 16 -1 19 -3 4 -6 -2 -5 -13z"/>
<path d="M2610 2862 c0 -5 7 -9 15 -9 8 0 12 4 9 9 -3 4 -9 8 -15 8 -5 0 -9
-4 -9 -8z"/>
<path d="M2710 2828 c-5 -46 -4 -48 20 -47 16 1 19 3 8 6 -12 3 -18 17 -20 46
l-3 42 -5 -47z"/>
<path d="M2851 2823 c0 -29 3 -53 7 -53 4 0 6 17 4 38 -6 64 -10 69 -11 15z"/>
<path d="M2932 2861 c2 -7 7 -12 11 -12 12 1 9 15 -3 20 -7 2 -11 -2 -8 -8z"/>
<path d="M3091 2814 c0 -11 3 -14 6 -6 3 7 2 16 -1 19 -3 4 -6 -2 -5 -13z"/>
<path d="M2950 2780 c-8 -15 -18 -20 -31 -17 -10 3 -30 -3 -43 -14 -13 -10
-29 -19 -35 -19 -6 0 -11 -5 -11 -11 0 -7 7 -8 18 -4 29 11 37 11 34 -3 -2
-10 2 -10 17 -2 24 13 76 78 68 86 -3 3 -11 -4 -17 -16z m-30 -40 c-20 -13
-33 -13 -25 0 3 6 14 10 23 10 15 0 15 -2 2 -10z"/>
<path d="M2700 2736 c0 -2 8 -10 18 -17 15 -13 16 -12 3 4 -13 16 -21 21 -21
13z"/>
<path d="M2755 2710 c3 -5 8 -10 11 -10 2 0 4 5 4 10 0 6 -5 10 -11 10 -5 0
-7 -4 -4 -10z"/>
<path d="M2790 2709 c0 -5 5 -7 10 -4 6 3 10 8 10 11 0 2 -4 4 -10 4 -5 0 -10
-5 -10 -11z"/>
<path d="M2768 2673 c12 -2 30 -2 40 0 9 3 -1 5 -23 4 -22 0 -30 -2 -17 -4z"/>
<path d="M2691 2606 c-9 -10 -8 -15 4 -20 10 -4 15 1 15 14 0 24 -4 25 -19 6z"/>
<path d="M2721 2605 c-2 -29 56 -44 72 -18 11 19 27 16 27 -4 0 -15 2 -16 10
-3 8 13 10 12 10 -2 0 -10 7 -18 16 -18 14 0 14 1 0 16 -9 8 -16 19 -16 23 0
9 -82 8 -97 -2 -6 -4 -14 -1 -16 5 -3 7 -6 9 -6 3z"/>
<path d="M2870 2591 c0 -10 19 -25 25 -20 1 2 -3 10 -11 17 -8 7 -14 8 -14 3z"/>
<path d="M2502 2450 c0 -14 2 -19 5 -12 2 6 2 18 0 25 -3 6 -5 1 -5 -13z"/>
<path d="M2620 2449 c0 -11 5 -17 10 -14 6 3 10 13 10 21 0 8 -4 14 -10 14 -5
0 -10 -9 -10 -21z"/>
<path d="M2685 2360 c-3 -5 -1 -10 4 -10 6 0 11 5 11 10 0 6 -2 10 -4 10 -3 0
-8 -4 -11 -10z"/>
<path d="M1842 3090 c0 -19 2 -27 5 -17 2 9 2 25 0 35 -3 9 -5 1 -5 -18z"/>
<path d="M2366 2265 c-9 -26 -7 -32 5 -12 6 10 9 21 6 23 -2 3 -7 -2 -11 -11z"/>
<path d="M1218 2187 c-33 -13 -40 -48 -8 -40 11 3 20 9 20 14 0 5 7 6 15 3 10
-4 15 0 15 15 0 23 -3 24 -42 8z"/>
<path d="M1218 2118 c-23 -8 -28 -16 -28 -44 0 -19 -4 -34 -10 -34 -12 0 -9
-22 4 -31 5 -4 5 -15 1 -25 -12 -28 -12 -17 -19 -774 -8 -783 -7 -804 55 -920
63 -119 206 -225 338 -250 73 -14 1929 -14 2002 0 176 34 337 186 380 360 11
41 14 128 12 345 0 160 -2 449 -3 644 -1 251 -5 359 -13 374 -9 14 -9 21 -1
24 9 3 8 16 -2 48 -9 33 -10 45 -2 45 7 0 -3 11 -22 25 -44 32 -50 32 -51 -7
0 -28 -2 -30 -9 -13 -7 15 -9 9 -9 -25 -1 -33 2 -41 9 -30 8 12 10 10 10 -8 0
-13 -4 -21 -10 -17 -6 4 -10 -246 -12 -682 l-3 -688 -27 -57 c-37 -80 -107
-152 -187 -191 l-66 -32 -995 0 -995 0 -58 27 c-80 38 -158 115 -193 191 l-29
62 -4 800 c-2 440 -7 784 -11 765 -7 -33 -7 -32 -9 15 0 36 2 46 9 35 8 -12
10 -10 10 8 0 13 -4 20 -10 17 -6 -4 -10 7 -10 24 0 34 -2 34 -42 19z"/>
<path d="M2591 2022 c-5 -10 -49 -121 -96 -247 -48 -127 -98 -258 -111 -292
l-24 -63 75 0 74 0 22 75 22 75 102 0 102 0 22 -75 23 -75 75 0 c56 0 74 3 71
13 -3 6 -54 146 -114 310 l-108 297 -63 0 c-50 0 -64 -4 -72 -18z m94 -227
c14 -47 28 -92 31 -100 5 -12 -6 -15 -61 -15 -49 0 -65 3 -61 13 3 6 17 51 32
100 15 48 29 87 30 87 2 0 14 -38 29 -85z"/>
<path d="M3240 1731 l0 -311 133 0 c171 0 224 14 288 79 55 54 79 121 79 217
0 147 -46 238 -145 289 -56 29 -65 30 -207 34 l-148 3 0 -311z m285 166 c43
-43 58 -102 53 -197 -7 -122 -45 -170 -135 -173 l-48 -2 -3 203 -2 202 51 0
c44 0 55 -4 84 -33z"/>
<path d="M3860 1986 c0 -8 15 -23 34 -34 34 -20 35 -20 33 -1 -1 10 -6 19 -13
19 -6 0 -17 7 -24 15 -16 19 -30 19 -30 1z"/>
<path d="M1360 1251 c0 -27 3 -30 38 -33 43 -3 42 12 8 -169 l-23 -120 41 3
41 3 27 140 c15 77 27 141 28 143 0 1 18 2 39 2 38 0 51 11 51 46 0 11 -24 14
-125 14 l-125 0 0 -29z"/>
<path d="M1621 1173 c-32 -164 -29 -203 20 -228 65 -34 166 -8 201 52 13 22
68 248 68 279 0 2 -18 4 -39 4 l-40 0 -11 -57 c-7 -32 -18 -86 -25 -120 -15
-76 -38 -113 -68 -113 -52 0 -57 30 -27 175 11 53 20 101 20 106 0 5 -17 9
-39 9 l-38 0 -22 -107z"/>
<path d="M1940 1250 c0 -28 2 -30 40 -30 22 0 40 -1 40 -2 0 -2 -11 -61 -25
-133 -14 -71 -25 -135 -25 -142 0 -8 14 -13 38 -13 l38 0 28 144 28 145 42 3
c36 3 41 6 44 31 l3 27 -125 0 -126 0 0 -30z"/>
<path d="M2300 1269 c-67 -27 -111 -103 -118 -204 -4 -61 -1 -74 17 -97 46
-58 148 -57 215 3 85 74 101 255 26 294 -33 17 -103 19 -140 4z m88 -61 c26
-26 9 -149 -27 -197 -20 -26 -68 -32 -82 -10 -12 20 -11 112 2 146 23 61 77
91 107 61z"/>
<path d="M2571 1227 c-6 -29 -22 -107 -34 -174 l-24 -123 39 0 c42 0 42 -1 58
83 6 31 15 57 19 57 4 0 24 -33 44 -72 21 -40 46 -83 56 -96 19 -22 21 -22 51
-7 30 16 38 29 21 39 -14 9 -77 108 -85 133 -5 16 -2 23 14 28 28 9 60 62 60
101 0 18 -9 42 -19 55 -17 22 -28 24 -105 26 l-85 2 -10 -52z m123 -13 c21
-21 20 -40 -4 -64 -29 -29 -50 -26 -50 8 0 67 22 89 54 56z"/>
<path d="M2881 1228 c-6 -29 -22 -108 -35 -176 l-23 -123 41 3 40 3 27 135
c15 74 30 152 33 173 l6 37 -39 0 -40 0 -10 -52z"/>
<path d="M3133 1268 c-4 -7 -47 -83 -95 -168 -74 -132 -84 -156 -70 -162 41
-16 61 -8 82 32 20 39 22 40 74 40 l53 0 7 -40 c6 -39 7 -40 46 -40 26 0 40 5
40 13 -1 6 -15 84 -33 172 l-32 160 -32 3 c-18 2 -35 -2 -40 -10z m27 -143 c0
-19 0 -38 0 -42 0 -5 -11 -9 -25 -11 -29 -4 -31 5 -8 53 21 45 33 45 33 0z"/>
<path d="M3365 1268 c-5 -17 -65 -319 -65 -330 0 -13 208 -10 212 3 3 9 9 9
26 0 25 -13 107 -17 143 -6 88 27 102 138 24 189 -51 34 -66 55 -55 76 13 24
38 26 54 4 10 -13 16 -14 39 -3 34 16 34 32 0 59 -23 18 -37 21 -82 18 -68 -6
-101 -38 -101 -98 0 -35 6 -44 55 -86 56 -49 66 -72 40 -94 -15 -12 -64 -10
-97 4 -12 6 -21 0 -32 -21 -11 -20 -15 -23 -16 -10 0 14 -10 17 -60 17 -58 0
-60 1 -55 23 12 48 45 233 45 249 0 14 -8 18 -35 18 -20 0 -37 -6 -40 -12z"/>
<path d="M2463 844 c-47 -17 -113 -76 -140 -126 -25 -47 -25 -199 0 -246 66
-121 222 -175 342 -118 170 81 210 297 78 429 -73 73 -180 96 -280 61z m155
-118 c47 -25 74 -62 79 -110 9 -80 -38 -148 -112 -162 -49 -9 -80 1 -123 41
-35 32 -37 36 -37 99 0 58 3 68 30 96 17 18 39 36 50 40 31 13 83 11 113 -4z"/>
</g>
</svg>
